<?xml version="1.0" encoding="UTF-8"?>
<svg version="1.1" xmlns="http://www.w3.org/2000/svg" width="1254" height="1254">
<path d="M0 0 C1.45015493 -0.00702161 2.90030955 -0.01410843 4.35046387 -0.02125549 C8.95890752 -0.04065545 13.56730088 -0.04568945 18.17578125 -0.046875 C19.35313025 -0.04753778 19.35313025 -0.04753778 20.55426407 -0.04821396 C43.99619261 -0.05513665 67.2025273 0.22187371 90.48828125 3.203125 C91.91105525 3.37710035 93.33390932 3.55042188 94.75683594 3.72314453 C186.19927975 14.95741292 275.50478619 45.94587812 419.48828125 143.203125 C419.99858887 143.62706543 420.50889648 144.05100586 421.03466797 144.48779297 C428.03899811 150.3165712 434.86648737 156.29383883 441.5390625 162.5 C443.04529492 163.89811114 444.56257247 165.2663118 446.12817383 166.59790039 C452.64423617 172.14040776 458.63581546 178.19977653 464.67016602 184.25463867 C466.546576 186.13640774 468.42827094 188.01277238 470.31054688 189.88867188 C476.25040742 195.82523796 482.06296293 201.7861774 487.48828125 208.203125 C488.94273642 209.81080873 490.4004902 211.41552215 491.86328125 213.015625 C496.59404218 218.26493477 501.05825177 223.69936445 505.48828125 229.203125 C506.41366533 230.33626197 507.33946518 231.46905949 508.265625 232.6015625 C515.4886549 241.47804259 522.26682803 250.62578017 528.89013672 259.95654297 C530.4361651 262.12986304 531.99394329 264.2942642 533.5546875 266.45703125 C552.75329293 293.17857187 568.73471684 321.84378518 583.48828125 351.203125 C583.98424805 352.18039551 584.48021484 353.15766602 584.99121094 354.16455078 C623.38052446 430.1238118 646.38176238 520.41737341 646.69140625 607.71484375 C646.69842786 609.16499868 646.70551468 610.6151533 646.71266174 612.06530762 C646.7320617 616.67375127 646.7370957 621.28214463 646.73828125 625.890625 C646.73872311 626.67552433 646.73916496 627.46042366 646.73962021 628.26910782 C646.7465429 651.71103636 646.46953254 674.91737105 643.48828125 698.203125 C643.3143059 699.625899 643.14098437 701.04875307 642.96826172 702.47167969 C631.73399333 793.9141235 600.74552813 883.21962994 503.48828125 1027.203125 C503.06434082 1027.71343262 502.64040039 1028.22374023 502.20361328 1028.74951172 C496.37483505 1035.75384186 490.39756742 1042.58133112 484.19140625 1049.25390625 C482.79329511 1050.76013867 481.42509445 1052.27741622 480.09350586 1053.84301758 C474.55099849 1060.35907992 468.49162972 1066.35065921 462.43676758 1072.38500977 C460.55499851 1074.26141975 458.67863387 1076.14311469 456.80273438 1078.02539062 C450.86616829 1083.96525117 444.90522885 1089.77780668 438.48828125 1095.203125 C436.88059752 1096.65758017 435.2758841 1098.11533395 433.67578125 1099.578125 C428.42647148 1104.30888593 422.9920418 1108.77309552 417.48828125 1113.203125 C416.35514428 1114.12850908 415.22234676 1115.05430893 414.08984375 1115.98046875 C405.21336366 1123.20349865 396.06562608 1129.98167178 386.73486328 1136.60498047 C384.56154321 1138.15100885 382.39714205 1139.70878704 380.234375 1141.26953125 C353.51283438 1160.46813668 324.84762107 1176.44956059 295.48828125 1191.203125 C294.51101074 1191.6990918 293.53374023 1192.19505859 292.52685547 1192.70605469 C216.56759445 1231.09536821 126.27403284 1254.09660613 38.9765625 1254.40625 C37.52640757 1254.41327161 36.07625295 1254.42035843 34.62609863 1254.42750549 C30.01765498 1254.44690545 25.40926162 1254.45193945 20.80078125 1254.453125 C20.01588192 1254.45356686 19.23098259 1254.45400871 18.42229843 1254.45446396 C-5.01963011 1254.46138665 -28.2259648 1254.18437629 -51.51171875 1251.203125 C-52.93449275 1251.02914965 -54.35734682 1250.85582812 -55.78027344 1250.68310547 C-147.22271725 1239.44883708 -236.52822369 1208.46037188 -380.51171875 1111.203125 C-381.02202637 1110.77918457 -381.53233398 1110.35524414 -382.05810547 1109.91845703 C-389.06243561 1104.0896788 -395.88992487 1098.11241117 -402.5625 1091.90625 C-404.06873242 1090.50813886 -405.58600997 1089.1399382 -407.15161133 1087.80834961 C-413.66767367 1082.26584224 -419.65925296 1076.20647347 -425.69360352 1070.15161133 C-427.5700135 1068.26984226 -429.45170844 1066.39347762 -431.33398438 1064.51757812 C-437.27384492 1058.58101204 -443.08640043 1052.6200726 -448.51171875 1046.203125 C-449.96617392 1044.59544127 -451.4239277 1042.99072785 -452.88671875 1041.390625 C-457.61747968 1036.14131523 -462.08168927 1030.70688555 -466.51171875 1025.203125 C-467.43710283 1024.06998803 -468.36290268 1022.93719051 -469.2890625 1021.8046875 C-476.5120924 1012.92820741 -483.29026553 1003.78046983 -489.91357422 994.44970703 C-491.4596026 992.27638696 -493.01738079 990.1119858 -494.578125 987.94921875 C-513.77673043 961.22767813 -529.75815434 932.56246482 -544.51171875 903.203125 C-545.00768555 902.22585449 -545.50365234 901.24858398 -546.01464844 900.24169922 C-584.40396196 824.2824382 -607.40519988 733.98887659 -607.71484375 646.69140625 C-607.72186536 645.24125132 -607.72895218 643.7910967 -607.73609924 642.34094238 C-607.7554992 637.73249873 -607.7605332 633.12410537 -607.76171875 628.515625 C-607.76216061 627.73072567 -607.76260246 626.94582634 -607.76305771 626.13714218 C-607.7699804 602.69521364 -607.49297004 579.48887895 -604.51171875 556.203125 C-604.3377434 554.780351 -604.16442187 553.35749693 -603.99169922 551.93457031 C-592.75743083 460.4921265 -561.76896563 371.18662006 -464.51171875 227.203125 C-464.08777832 226.69281738 -463.66383789 226.18250977 -463.22705078 225.65673828 C-457.39827255 218.65240814 -451.42100492 211.82491888 -445.21484375 205.15234375 C-443.81673261 203.64611133 -442.44853195 202.12883378 -441.11694336 200.56323242 C-435.57443599 194.04717008 -429.51506722 188.05559079 -423.46020508 182.02124023 C-421.57843601 180.14483025 -419.70207137 178.26313531 -417.82617188 176.38085938 C-411.88960579 170.44099883 -405.92866635 164.62844332 -399.51171875 159.203125 C-397.90403502 157.74866983 -396.2993216 156.29091605 -394.69921875 154.828125 C-389.44990898 150.09736407 -384.0154793 145.63315448 -378.51171875 141.203125 C-377.37858178 140.27774092 -376.24578426 139.35194107 -375.11328125 138.42578125 C-366.23680116 131.20275135 -357.08906358 124.42457822 -347.75830078 117.80126953 C-345.58498071 116.25524115 -343.42057955 114.69746296 -341.2578125 113.13671875 C-314.53627188 93.93811332 -285.87105857 77.95668941 -256.51171875 63.203125 C-255.53444824 62.7071582 -254.55717773 62.21119141 -253.55029297 61.70019531 C-177.59103195 23.31088179 -87.29747034 0.30964387 0 0 Z " fill="#C8D2D5" transform="translate(607.51171875,-0.203125)"/>
<path d="M0 0 C1.20521805 0.00090637 1.20521805 0.00090637 2.43478394 0.00183105 C41.05030417 0.08003777 81.01946784 4.67575988 117.78515625 17.06640625 C122.45221548 18.63300976 127.19133073 19.90657652 131.94140625 21.1953125 C135.46156567 22.29239286 138.74584774 23.71520861 142.125 25.1875 C144.39278993 26.00845621 146.66387901 26.8203337 148.9375 27.625 C208.39366513 49.43876644 270.96837818 90.78389163 310.0078125 141.53515625 C311.90190364 143.90801213 313.87141862 146.14299843 315.90625 148.39453125 C320.03733799 153.01468891 323.80574769 157.83929901 327.5 162.8125 C328.15137939 163.68712891 328.80275879 164.56175781 329.47387695 165.46289062 C357.61021593 203.49267718 377.50198743 245.36606167 392.125 290.1875 C386.8697098 294.93783035 381.46355183 299.27745896 375.6875 303.375 C374.51852173 304.21019165 374.51852173 304.21019165 373.32592773 305.06225586 C371.71343875 306.21301104 370.09958663 307.36185855 368.484375 308.50878906 C366.26441925 310.08830228 364.05305809 311.67908088 361.84375 313.2734375 C335.13199846 332.46565232 306.47380546 348.43922929 277.125 363.1875 C276.14772949 363.6834668 275.17045898 364.17943359 274.16357422 364.69042969 C198.2043132 403.07974321 107.91075159 426.08098113 20.61328125 426.390625 C19.16312632 426.39764661 17.7129717 426.40473343 16.26281738 426.41188049 C11.65437373 426.43128045 7.04598037 426.43631445 2.4375 426.4375 C1.260151 426.43816278 1.260151 426.43816278 0.05901718 426.43883896 C-23.38291136 426.44576165 -46.58924605 426.16875129 -69.875 423.1875 C-71.297774 423.01352465 -72.72062807 422.84020312 -74.14355469 422.66748047 C-165.5859985 411.43321208 -254.89150494 380.44474688 -389.875 290.1875 C-386.89674508 265.79502837 -372.87988478 239.6553978 -361.10449219 218.41113281 C-359.85723846 216.15537687 -358.63402277 213.88780348 -357.4140625 211.6171875 C-351.73968357 201.13063028 -345.55537959 191.06205016 -338.875 181.1875 C-338.39804687 180.48238281 -337.92109375 179.77726563 -337.4296875 179.05078125 C-330.54860933 168.94994726 -323.16697269 159.36792184 -315.35302734 149.97412109 C-313.98747269 148.32345558 -312.63987674 146.66043788 -311.30078125 144.98828125 C-307.57976381 140.35754139 -303.81214766 135.97440287 -299.5390625 131.84765625 C-297.80212187 130.11479295 -296.21654672 128.30436167 -294.625 126.4375 C-288.2654445 119.07756499 -281.27902533 112.22285088 -273.87890625 105.9140625 C-271.62266614 103.97008954 -269.44136107 101.95426482 -267.25 99.9375 C-261.04488648 94.35383942 -254.50814934 89.2449157 -247.875 84.1875 C-247.16698242 83.64432129 -246.45896484 83.10114258 -245.72949219 82.54150391 C-233.58739888 73.26401184 -221.04780635 64.92819785 -207.875 57.1875 C-206.89225098 56.60967773 -205.90950195 56.03185547 -204.89697266 55.43652344 C-169.04222054 34.51887133 -129.32200997 17.44358007 -88.3046875 9.86328125 C-85.93898381 9.39714601 -83.58879548 8.84719751 -81.2578125 8.23046875 C-75.54156945 6.77294337 -69.70797503 6.02391283 -63.875 5.1875 C-62.67254639 5.01307373 -61.47009277 4.83864746 -60.23120117 4.65893555 C-56.78003038 4.16186098 -53.32788465 3.6725118 -49.875 3.1875 C-49.03146973 3.06842285 -48.18793945 2.9493457 -47.31884766 2.82666016 C-31.5677328 0.63329039 -15.87904636 -0.02233951 0 0 Z " fill="#A2B0B3" transform="translate(625.875,827.8125)"/>
<path d="M0 0 C1.42684113 -0.00259827 1.42684113 -0.00259827 2.88250732 -0.00524902 C20.65855348 0.00885276 37.47590936 1.89752898 54.875 5.4375 C56.61562195 5.76442669 58.35647895 6.09010654 60.09765625 6.4140625 C108.30919108 15.81283035 151.82101813 42.84562374 186.875 76.4375 C187.69613281 77.21738281 188.51726562 77.99726563 189.36328125 78.80078125 C195.02454892 84.30560629 199.97677564 90.25238583 204.875 96.4375 C205.76107297 97.53307469 206.64781485 98.62810865 207.53515625 99.72265625 C249.24290875 151.51230397 270.68719918 220.06224641 264.125 286.4375 C262.27782122 303.32081755 259.75908399 320.15123463 254.875 336.4375 C254.47684665 337.85742442 254.08112749 339.27803304 253.6875 340.69921875 C251.2977453 349.23122775 248.48959328 357.33445572 244.875 365.4375 C244.3157276 366.77000372 243.75858157 368.10340114 243.203125 369.4375 C230.89765667 398.57807693 212.76706426 424.70941553 190.875 447.4375 C190.29202148 448.04770996 189.70904297 448.65791992 189.10839844 449.28662109 C181.08797316 457.64638847 172.83941847 465.23358655 163.55712891 472.16552734 C161.8937479 473.42332343 160.26262651 474.71376577 158.63671875 476.01953125 C150.79947401 482.2804768 142.58288112 487.47641969 133.875 492.4375 C133.16150391 492.85032227 132.44800781 493.26314453 131.71289062 493.68847656 C121.37643962 499.66296336 110.95729982 504.98914588 99.875 509.4375 C99.22321777 509.70014648 98.57143555 509.96279297 97.89990234 510.23339844 C41.98086702 532.52386386 -20.79772052 534.4332215 -78.125 516.4375 C-79.29820801 516.07785156 -79.29820801 516.07785156 -80.49511719 515.7109375 C-120.86838829 503.28313988 -155.65822839 480.3719192 -186.125 451.4375 C-187.36636719 450.25994141 -187.36636719 450.25994141 -188.6328125 449.05859375 C-194.284036 443.55505031 -199.22890879 437.61398349 -204.125 431.4375 C-204.99906123 430.36511957 -205.8740929 429.29352952 -206.75 428.22265625 C-221.90119907 409.54060678 -233.93578783 388.66395827 -243.24755859 366.51464844 C-244.04840419 364.61882364 -244.87632584 362.73449475 -245.70703125 360.8515625 C-253.77217874 341.91229795 -258.14798192 321.73271544 -261.125 301.4375 C-261.30305176 300.3657251 -261.48110352 299.2939502 -261.66455078 298.18969727 C-263.2457487 287.93576203 -263.43169422 277.85361494 -263.38574219 267.49584961 C-263.37505461 264.63959335 -263.38568097 261.78397127 -263.3984375 258.92773438 C-263.41197627 242.94853942 -262.05126801 227.47535221 -258.8125 211.8125 C-258.4865686 210.21523071 -258.4865686 210.21523071 -258.15405273 208.58569336 C-256.48805338 200.66154003 -254.42514132 193.02176649 -251.77978516 185.36962891 C-251.08254827 183.31223416 -250.43478663 181.24328849 -249.79296875 179.16796875 C-242.27725185 155.18247896 -230.63059503 132.92038216 -216.125 112.4375 C-215.66899414 111.79071289 -215.21298828 111.14392578 -214.74316406 110.47753906 C-208.19607235 101.27027007 -201.09134356 92.87597933 -193.25390625 84.7421875 C-191.22128652 82.63072676 -189.29572128 80.48043956 -187.44140625 78.2109375 C-185.54666389 75.94235896 -183.75351168 74.0736992 -181.5 72.1875 C-179.22445359 70.25686081 -176.99727924 68.31630671 -174.83203125 66.26171875 C-156.31804088 48.72365966 -134.17456999 35.16423471 -111.125 24.4375 C-110.17560547 23.99180664 -110.17560547 23.99180664 -109.20703125 23.53710938 C-91.45813889 15.27469396 -73.24093466 9.56077639 -54.125 5.4375 C-52.78382506 5.13684858 -51.44267689 4.83607768 -50.1015625 4.53515625 C-33.4999467 0.97766715 -16.93141924 -0.000741 0 0 Z " fill="#A2B0B3" transform="translate(626.125,222.5625)"/>
</svg>
