<?xml version="1.0" encoding="UTF-8"?>
<svg version="1.1" xmlns="http://www.w3.org/2000/svg" width="640" height="640">
<path d="M0 0 C211.2 0 422.4 0 640 0 C640 211.2 640 422.4 640 640 C428.8 640 217.6 640 0 640 C0 428.8 0 217.6 0 0 Z " fill="#F9F9F9" transform="translate(0,0)"/>
<path d="M0 0 C0.9692905 -0.00538554 1.938581 -0.01077108 2.93724394 -0.01631981 C6.15820541 -0.03053228 9.37875201 -0.02351226 12.59973145 -0.01637268 C14.9199303 -0.02207969 17.24012635 -0.02904522 19.56031799 -0.03717041 C25.84329539 -0.05507868 32.12613295 -0.05393796 38.40912819 -0.04822803 C43.66019616 -0.04513332 48.91123738 -0.05123166 54.16230154 -0.05726677 C67.25903787 -0.07210387 80.35569583 -0.06850491 93.45243186 -0.05640347 C104.81002336 -0.04646932 116.167452 -0.0594185 127.52501839 -0.08333766 C139.20747066 -0.10775438 150.88984039 -0.11693114 162.5723176 -0.11068493 C169.12300553 -0.1073168 175.67355885 -0.10972134 182.22422791 -0.12693596 C188.38360112 -0.14241679 194.54266347 -0.13843649 200.70202446 -0.11963081 C202.95863727 -0.11594838 205.21527319 -0.11904325 207.4718647 -0.1295166 C210.5598058 -0.14275125 213.64672146 -0.13115648 216.73461914 -0.11352539 C217.62082428 -0.1231304 218.50702941 -0.1327354 219.42008924 -0.14263147 C230.26641906 -0.01580199 239.88785682 4.91353317 247.80871582 12.1650238 C258.21680744 23.15758709 259.25276534 35.45359719 259.08215332 49.80955505 C258.73580068 62.36430061 256.01268863 73.89889338 250.86730957 85.38768005 C250.48703613 86.2693988 250.1067627 87.15111755 249.71496582 88.05955505 C246.68416638 94.63138953 242.54435488 99.90393507 237.86730957 105.38768005 C237.34652832 106.05412537 236.82574707 106.72057068 236.28918457 107.4072113 C216.39069767 132.07932511 181.60132158 143.34380525 151.55480957 148.07518005 C150.26252441 148.28723083 148.97023926 148.49928162 147.63879395 148.71775818 C138.0946906 150.26373711 128.75639786 151.53441 119.08215332 151.59080505 C118.27157974 151.59772873 117.46100616 151.6046524 116.62586975 151.61178589 C114.0187999 151.62898754 111.41193354 151.63537535 108.80480957 151.63768005 C107.91358398 151.63901947 107.0223584 151.64035889 106.10412598 151.64173889 C91.8177386 151.63708587 77.96708091 150.81220573 63.86730957 148.38768005 C62.42356624 148.16717416 60.97956859 147.94832463 59.53527832 147.73143005 C33.32700337 143.56451652 5.59856826 132.38812658 -14.13269043 114.38768005 C-15.29864746 113.34353943 -15.29864746 113.34353943 -16.48815918 112.27830505 C-32.36520319 97.30305528 -42.71939673 76.1293339 -43.50378418 54.27049255 C-43.53666596 51.68466937 -43.55858821 49.09868626 -43.57019043 46.51268005 C-43.60306152 45.22748474 -43.63593262 43.94228943 -43.6697998 42.6181488 C-43.74043093 29.96875557 -40.35551656 20.67808613 -31.51940918 11.5790863 C-22.22091932 3.04152033 -12.52794349 -0.08496172 0 0 Z " fill="#8F8F8F" transform="translate(212.1326904296875,353.61231994628906)"/>
<path d="M0 0 C20.80176521 17.03115329 34.78211313 40.05019746 38 67 C39.44237169 95.32041335 31.96622509 121.11520129 13.25 142.8125 C-4.77379678 161.53925297 -28.1272913 173.31053395 -54.3046875 174.25390625 C-83.64322756 174.80999967 -107.76436899 165.55268413 -129.125 145.1875 C-147.90868619 125.72488539 -156.67934836 100.68300276 -156.40380859 73.9855957 C-156.19358702 65.98672611 -155.39767177 58.67254967 -153 51 C-152.45472656 49.2365625 -152.45472656 49.2365625 -151.8984375 47.4375 C-147.6362611 34.6784687 -141.28011257 24.53267602 -133 14 C-132.21625 12.948125 -131.4325 11.89625 -130.625 10.8125 C-96.64321789 -25.59655226 -39.25573219 -30.65998609 0 0 Z " fill="#8F8F8F" transform="translate(379,154)"/>
</svg>
